<mxfile host="app.diagrams.net" modified="2022-11-13T02:38:33.185Z" agent="5.0 (Windows NT 10.0; Win64; x64) AppleWebKit/537.36 (KHTML, like Gecko) Chrome/107.0.0.0 Safari/537.36 Edg/107.0.1418.42" etag="GsqW5q3dFHFssKQi9FHm" version="20.5.3" type="github">
  <diagram id="Fio2O4Zh_DrDkoOL3htt" name="第 1 页">
    <mxGraphModel dx="1038" dy="600" grid="0" gridSize="10" guides="1" tooltips="1" connect="1" arrows="1" fold="1" page="1" pageScale="1" pageWidth="827" pageHeight="1169" math="0" shadow="0">
      <root>
        <mxCell id="0" />
        <mxCell id="1" parent="0" />
        <mxCell id="4DwnTIUPpVcd0Za8Jnlm-51" value="" style="rounded=0;whiteSpace=wrap;html=1;" vertex="1" parent="1">
          <mxGeometry x="66" y="17" width="457" height="538" as="geometry" />
        </mxCell>
        <mxCell id="4DwnTIUPpVcd0Za8Jnlm-2" value="学生反馈信息" style="rounded=0;whiteSpace=wrap;html=1;fillColor=#fff2cc;strokeColor=#d6b656;" vertex="1" parent="1">
          <mxGeometry x="187" y="56.25" width="61" height="35.5" as="geometry" />
        </mxCell>
        <mxCell id="4DwnTIUPpVcd0Za8Jnlm-5" value="" style="endArrow=none;dashed=1;html=1;dashPattern=1 3;strokeWidth=2;rounded=0;entryX=0.5;entryY=0;entryDx=0;entryDy=0;startArrow=none;" edge="1" parent="1" target="4DwnTIUPpVcd0Za8Jnlm-6">
          <mxGeometry width="50" height="50" relative="1" as="geometry">
            <mxPoint x="104" y="99" as="sourcePoint" />
            <mxPoint x="86.58333333333326" y="226" as="targetPoint" />
          </mxGeometry>
        </mxCell>
        <mxCell id="4DwnTIUPpVcd0Za8Jnlm-6" value="" style="rounded=0;whiteSpace=wrap;html=1;fillColor=#fff2cc;strokeColor=#d6b656;" vertex="1" parent="1">
          <mxGeometry x="90" y="178" width="28" height="147" as="geometry" />
        </mxCell>
        <mxCell id="4DwnTIUPpVcd0Za8Jnlm-7" value="" style="endArrow=none;dashed=1;html=1;dashPattern=1 3;strokeWidth=2;rounded=0;exitX=0.5;exitY=1;exitDx=0;exitDy=0;" edge="1" parent="1" source="4DwnTIUPpVcd0Za8Jnlm-6">
          <mxGeometry width="50" height="50" relative="1" as="geometry">
            <mxPoint x="99" y="454" as="sourcePoint" />
            <mxPoint x="104" y="551" as="targetPoint" />
          </mxGeometry>
        </mxCell>
        <mxCell id="4DwnTIUPpVcd0Za8Jnlm-8" value="" style="endArrow=none;dashed=1;html=1;dashPattern=1 3;strokeWidth=2;rounded=0;entryX=0.5;entryY=0;entryDx=0;entryDy=0;exitX=0.5;exitY=1;exitDx=0;exitDy=0;" edge="1" parent="1" source="4DwnTIUPpVcd0Za8Jnlm-2" target="4DwnTIUPpVcd0Za8Jnlm-9">
          <mxGeometry width="50" height="50" relative="1" as="geometry">
            <mxPoint x="217.5" y="110" as="sourcePoint" />
            <mxPoint x="200.08333333333326" y="238" as="targetPoint" />
          </mxGeometry>
        </mxCell>
        <mxCell id="4DwnTIUPpVcd0Za8Jnlm-9" value="" style="rounded=0;whiteSpace=wrap;html=1;fillColor=#fff2cc;strokeColor=#d6b656;" vertex="1" parent="1">
          <mxGeometry x="203.75" y="181" width="27.5" height="97" as="geometry" />
        </mxCell>
        <mxCell id="4DwnTIUPpVcd0Za8Jnlm-10" value="" style="endArrow=none;dashed=1;html=1;dashPattern=1 3;strokeWidth=2;rounded=0;exitX=0.5;exitY=1;exitDx=0;exitDy=0;" edge="1" parent="1" source="4DwnTIUPpVcd0Za8Jnlm-9">
          <mxGeometry width="50" height="50" relative="1" as="geometry">
            <mxPoint x="201.5" y="466" as="sourcePoint" />
            <mxPoint x="218" y="550" as="targetPoint" />
          </mxGeometry>
        </mxCell>
        <mxCell id="4DwnTIUPpVcd0Za8Jnlm-11" value="" style="endArrow=none;dashed=1;html=1;dashPattern=1 3;strokeWidth=2;rounded=0;entryX=0.5;entryY=0;entryDx=0;entryDy=0;" edge="1" parent="1" target="4DwnTIUPpVcd0Za8Jnlm-12">
          <mxGeometry width="50" height="50" relative="1" as="geometry">
            <mxPoint x="317.5" y="91.75" as="sourcePoint" />
            <mxPoint x="300.08333333333326" y="219.75" as="targetPoint" />
          </mxGeometry>
        </mxCell>
        <mxCell id="4DwnTIUPpVcd0Za8Jnlm-12" value="" style="rounded=0;whiteSpace=wrap;html=1;fillColor=#fff2cc;strokeColor=#d6b656;" vertex="1" parent="1">
          <mxGeometry x="303.5" y="229" width="28" height="49" as="geometry" />
        </mxCell>
        <mxCell id="4DwnTIUPpVcd0Za8Jnlm-13" value="" style="endArrow=none;dashed=1;html=1;dashPattern=1 3;strokeWidth=2;rounded=0;exitX=0.5;exitY=1;exitDx=0;exitDy=0;" edge="1" parent="1" source="4DwnTIUPpVcd0Za8Jnlm-12">
          <mxGeometry width="50" height="50" relative="1" as="geometry">
            <mxPoint x="312.5" y="447.75" as="sourcePoint" />
            <mxPoint x="317.5" y="544.75" as="targetPoint" />
          </mxGeometry>
        </mxCell>
        <mxCell id="4DwnTIUPpVcd0Za8Jnlm-14" value="" style="endArrow=none;dashed=1;html=1;dashPattern=1 3;strokeWidth=2;rounded=0;entryX=0.5;entryY=0;entryDx=0;entryDy=0;" edge="1" parent="1" target="4DwnTIUPpVcd0Za8Jnlm-15">
          <mxGeometry width="50" height="50" relative="1" as="geometry">
            <mxPoint x="487" y="100" as="sourcePoint" />
            <mxPoint x="469.58333333333326" y="228" as="targetPoint" />
          </mxGeometry>
        </mxCell>
        <mxCell id="4DwnTIUPpVcd0Za8Jnlm-15" value="" style="rounded=0;whiteSpace=wrap;html=1;fillColor=#fff2cc;strokeColor=#d6b656;" vertex="1" parent="1">
          <mxGeometry x="473" y="278" width="28" height="52" as="geometry" />
        </mxCell>
        <mxCell id="4DwnTIUPpVcd0Za8Jnlm-16" value="" style="endArrow=none;dashed=1;html=1;dashPattern=1 3;strokeWidth=2;rounded=0;exitX=0.5;exitY=1;exitDx=0;exitDy=0;" edge="1" parent="1" source="4DwnTIUPpVcd0Za8Jnlm-15">
          <mxGeometry width="50" height="50" relative="1" as="geometry">
            <mxPoint x="482" y="456" as="sourcePoint" />
            <mxPoint x="487" y="553" as="targetPoint" />
          </mxGeometry>
        </mxCell>
        <mxCell id="4DwnTIUPpVcd0Za8Jnlm-17" value="学生" style="shape=umlActor;verticalLabelPosition=bottom;verticalAlign=top;html=1;outlineConnect=0;" vertex="1" parent="1">
          <mxGeometry x="93.5" y="41.5" width="21" height="48" as="geometry" />
        </mxCell>
        <mxCell id="4DwnTIUPpVcd0Za8Jnlm-18" value="" style="endArrow=none;dashed=1;html=1;dashPattern=1 3;strokeWidth=2;rounded=0;" edge="1" parent="1">
          <mxGeometry width="50" height="50" relative="1" as="geometry">
            <mxPoint x="104" y="87" as="sourcePoint" />
            <mxPoint x="104" y="87" as="targetPoint" />
          </mxGeometry>
        </mxCell>
        <mxCell id="4DwnTIUPpVcd0Za8Jnlm-20" value="addComment()" style="text;html=1;strokeColor=none;fillColor=none;align=center;verticalAlign=middle;whiteSpace=wrap;rounded=0;" vertex="1" parent="1">
          <mxGeometry x="131" y="181" width="60" height="18" as="geometry" />
        </mxCell>
        <mxCell id="4DwnTIUPpVcd0Za8Jnlm-26" value="" style="endArrow=classic;html=1;rounded=0;" edge="1" parent="1">
          <mxGeometry width="50" height="50" relative="1" as="geometry">
            <mxPoint x="128" y="203" as="sourcePoint" />
            <mxPoint x="195" y="203" as="targetPoint" />
          </mxGeometry>
        </mxCell>
        <mxCell id="4DwnTIUPpVcd0Za8Jnlm-27" value="管理人员" style="shape=umlActor;verticalLabelPosition=bottom;verticalAlign=top;html=1;outlineConnect=0;" vertex="1" parent="1">
          <mxGeometry x="472" y="35.5" width="30" height="60" as="geometry" />
        </mxCell>
        <mxCell id="4DwnTIUPpVcd0Za8Jnlm-28" value="showComment()" style="text;html=1;strokeColor=none;fillColor=none;align=center;verticalAlign=middle;whiteSpace=wrap;rounded=0;" vertex="1" parent="1">
          <mxGeometry x="271.5" y="178" width="60" height="18" as="geometry" />
        </mxCell>
        <mxCell id="4DwnTIUPpVcd0Za8Jnlm-29" value="" style="endArrow=classic;html=1;rounded=0;" edge="1" parent="1">
          <mxGeometry width="50" height="50" relative="1" as="geometry">
            <mxPoint x="243" y="199" as="sourcePoint" />
            <mxPoint x="478" y="197" as="targetPoint" />
          </mxGeometry>
        </mxCell>
        <mxCell id="4DwnTIUPpVcd0Za8Jnlm-30" value="食堂工作人员" style="shape=umlActor;verticalLabelPosition=bottom;verticalAlign=top;html=1;outlineConnect=0;" vertex="1" parent="1">
          <mxGeometry x="302.5" y="35.5" width="30" height="60" as="geometry" />
        </mxCell>
        <mxCell id="4DwnTIUPpVcd0Za8Jnlm-33" value="" style="endArrow=classic;html=1;rounded=0;" edge="1" parent="1">
          <mxGeometry width="50" height="50" relative="1" as="geometry">
            <mxPoint x="237" y="250" as="sourcePoint" />
            <mxPoint x="278" y="250" as="targetPoint" />
          </mxGeometry>
        </mxCell>
        <mxCell id="4DwnTIUPpVcd0Za8Jnlm-34" value="showComment()" style="text;html=1;strokeColor=none;fillColor=none;align=center;verticalAlign=middle;whiteSpace=wrap;rounded=0;" vertex="1" parent="1">
          <mxGeometry x="250" y="223" width="11" height="26.5" as="geometry" />
        </mxCell>
        <mxCell id="4DwnTIUPpVcd0Za8Jnlm-40" value="管理人员意见" style="rounded=0;whiteSpace=wrap;html=1;fillColor=#fff2cc;strokeColor=#d6b656;" vertex="1" parent="1">
          <mxGeometry x="377" y="56.25" width="61" height="35.5" as="geometry" />
        </mxCell>
        <mxCell id="4DwnTIUPpVcd0Za8Jnlm-41" value="" style="endArrow=none;dashed=1;html=1;dashPattern=1 3;strokeWidth=2;rounded=0;entryX=0.5;entryY=0;entryDx=0;entryDy=0;exitX=0.5;exitY=1;exitDx=0;exitDy=0;" edge="1" parent="1" source="4DwnTIUPpVcd0Za8Jnlm-40" target="4DwnTIUPpVcd0Za8Jnlm-42">
          <mxGeometry width="50" height="50" relative="1" as="geometry">
            <mxPoint x="407.5" y="110" as="sourcePoint" />
            <mxPoint x="390.08333333333326" y="238" as="targetPoint" />
          </mxGeometry>
        </mxCell>
        <mxCell id="4DwnTIUPpVcd0Za8Jnlm-42" value="" style="rounded=0;whiteSpace=wrap;html=1;fillColor=#fff2cc;strokeColor=#d6b656;" vertex="1" parent="1">
          <mxGeometry x="393.75" y="231" width="27.5" height="70" as="geometry" />
        </mxCell>
        <mxCell id="4DwnTIUPpVcd0Za8Jnlm-43" value="" style="endArrow=none;dashed=1;html=1;dashPattern=1 3;strokeWidth=2;rounded=0;exitX=0.5;exitY=1;exitDx=0;exitDy=0;" edge="1" parent="1" source="4DwnTIUPpVcd0Za8Jnlm-42">
          <mxGeometry width="50" height="50" relative="1" as="geometry">
            <mxPoint x="391.5" y="466" as="sourcePoint" />
            <mxPoint x="408" y="550" as="targetPoint" />
          </mxGeometry>
        </mxCell>
        <mxCell id="4DwnTIUPpVcd0Za8Jnlm-45" value="" style="endArrow=classic;html=1;rounded=0;" edge="1" parent="1">
          <mxGeometry width="50" height="50" relative="1" as="geometry">
            <mxPoint x="470" y="292" as="sourcePoint" />
            <mxPoint x="426" y="292" as="targetPoint" />
          </mxGeometry>
        </mxCell>
        <mxCell id="4DwnTIUPpVcd0Za8Jnlm-46" value="addSuggestion()" style="text;html=1;strokeColor=none;fillColor=none;align=center;verticalAlign=middle;whiteSpace=wrap;rounded=0;" vertex="1" parent="1">
          <mxGeometry x="425" y="269" width="60" height="18" as="geometry" />
        </mxCell>
        <mxCell id="4DwnTIUPpVcd0Za8Jnlm-48" value="" style="endArrow=classic;html=1;rounded=0;" edge="1" parent="1">
          <mxGeometry width="50" height="50" relative="1" as="geometry">
            <mxPoint x="386" y="268" as="sourcePoint" />
            <mxPoint x="336" y="268" as="targetPoint" />
          </mxGeometry>
        </mxCell>
        <mxCell id="4DwnTIUPpVcd0Za8Jnlm-50" value="showSuggestion()" style="text;html=1;strokeColor=none;fillColor=none;align=center;verticalAlign=middle;whiteSpace=wrap;rounded=0;" vertex="1" parent="1">
          <mxGeometry x="333.75" y="244.5" width="60" height="18" as="geometry" />
        </mxCell>
      </root>
    </mxGraphModel>
  </diagram>
</mxfile>
